<svg width="37" height="37" viewBox="0 0 37 37" fill="none" xmlns="http://www.w3.org/2000/svg">
<g id="Group 10">
<path id="Subtract" fill-rule="evenodd" clip-rule="evenodd" d="M30.4885 31.725C34.1414 28.4143 36.4358 23.6319 36.4358 18.3136C36.4358 8.32009 28.3345 0.21875 18.3409 0.21875C8.34743 0.21875 0.246094 8.32009 0.246094 18.3136C0.246094 23.6318 2.5404 28.4142 6.19323 31.7248C6.19322 31.7233 6.19322 31.7218 6.19322 31.7203V30.3426C6.19322 28.4557 7.7229 26.9259 9.60985 26.9259H27.0718C28.9589 26.9259 30.4885 28.4557 30.4885 30.3426V31.7169C30.4885 31.7196 30.4885 31.7223 30.4885 31.725ZM18.3364 8.70477L18.1818 8.71515C17.626 8.79058 17.1975 9.26707 17.1975 9.84365L17.1963 10.981L11.8822 10.9818C9.99528 10.9818 8.4656 12.5114 8.4656 14.3984V21.2387C8.4656 23.1256 9.99528 24.6553 11.8822 24.6553H24.7895C26.6764 24.6553 28.2062 23.1256 28.2062 21.2387V14.3984C28.2062 12.5114 26.6764 10.9818 24.7895 10.9818L19.474 10.981L19.4752 9.84365L19.4649 9.68911C19.3894 9.13321 18.9129 8.70477 18.3364 8.70477ZM13.0211 17.4343C13.0211 16.3866 13.8704 15.5373 14.9182 15.5373C15.9658 15.5373 16.8153 16.3866 16.8153 17.4343C16.8153 18.482 15.9658 19.3314 14.9182 19.3314C13.8704 19.3314 13.0211 18.482 13.0211 17.4343ZM19.8433 17.4343C19.8433 16.3866 20.6926 15.5373 21.7404 15.5373C22.7882 15.5373 23.6375 16.3866 23.6375 17.4343C23.6375 18.482 22.7882 19.3314 21.7404 19.3314C20.6926 19.3314 19.8433 18.482 19.8433 17.4343Z" fill="#1A92D6"/>
<circle id="Ellipse 5" cx="18.3409" cy="18.3136" r="16.5949" stroke="#1A92D6" stroke-width="3"/>
</g>
</svg>
