<svg width="38" height="40" viewBox="0 0 38 40" fill="none" xmlns="http://www.w3.org/2000/svg">
<g id="Group 7">
<circle id="Ellipse 4" cx="18.9561" cy="18.6036" r="18.2599" fill="white"/>
<path id="Vector" d="M27.7667 27.2936C29.6709 27.2936 31.2145 28.8373 31.2145 30.7414V32.1283C31.2145 33.8043 30.4829 35.3965 29.2114 36.4883C26.8125 38.5477 23.3796 39.5543 18.9511 39.5543C14.5233 39.5543 11.0926 38.5481 8.69777 36.4891C7.42803 35.3974 6.69763 33.8063 6.69763 32.1317V30.7414C6.69763 28.8373 8.24126 27.2936 10.1454 27.2936H27.7667ZM18.7955 8.91673L18.9515 8.90625C19.5334 8.90625 20.0142 9.3386 20.0904 9.89957L20.1008 10.0555L20.0996 11.2032L25.4636 11.204C27.3677 11.204 28.9114 12.7476 28.9114 14.6518V21.5545C28.9114 23.4586 27.3677 25.0023 25.4636 25.0023H12.4385C10.5344 25.0023 8.99074 23.4586 8.99074 21.5545V14.6518C8.99074 12.7476 10.5344 11.204 12.4385 11.204L17.801 11.2032L17.8023 10.0555C17.8023 9.47368 18.2347 8.99284 18.7955 8.91673ZM15.5022 15.8011C14.4449 15.8011 13.5878 16.6582 13.5878 17.7154C13.5878 18.7727 14.4449 19.6298 15.5022 19.6298C16.5594 19.6298 17.4166 18.7727 17.4166 17.7154C17.4166 16.6582 16.5594 15.8011 15.5022 15.8011ZM22.3866 15.8011C21.3293 15.8011 20.4722 16.6582 20.4722 17.7154C20.4722 18.7727 21.3293 19.6298 22.3866 19.6298C23.4439 19.6298 24.301 18.7727 24.301 17.7154C24.301 16.6582 23.4439 15.8011 22.3866 15.8011Z" fill="#1A92D6"/>
<circle id="Ellipse 5" cx="18.9561" cy="18.6036" r="16.7599" stroke="white" stroke-width="3"/>
</g>
</svg>
